<svg xmlns="http://www.w3.org/2000/svg" version="1.1" xmlns:xlink="http://www.w3.org/1999/xlink" xmlns:svgjs="http://svgjs.com/svgjs" width="1440" height="560" preserveAspectRatio="none" viewBox="0 0 1440 560"><g mask="url(&quot;#SvgjsMask1029&quot;)" fill="none"><path d="M1246 464L1037 673" stroke-width="6" stroke="url(#SvgjsLinearGradient1030)" stroke-linecap="round" class="BottomLeft"></path><path d="M1332 422L1107 647" stroke-width="8" stroke="url(#SvgjsLinearGradient1031)" stroke-linecap="round" class="TopRight"></path><path d="M1351 198L1181 368" stroke-width="10" stroke="url(#SvgjsLinearGradient1030)" stroke-linecap="round" class="BottomLeft"></path><path d="M71 502L-245 818" stroke-width="8" stroke="url(#SvgjsLinearGradient1030)" stroke-linecap="round" class="BottomLeft"></path><path d="M398 171L692 -123" stroke-width="6" stroke="url(#SvgjsLinearGradient1031)" stroke-linecap="round" class="TopRight"></path><path d="M78 208L367 -81" stroke-width="10" stroke="url(#SvgjsLinearGradient1030)" stroke-linecap="round" class="BottomLeft"></path><path d="M1355 134L1165 324" stroke-width="6" stroke="url(#SvgjsLinearGradient1030)" stroke-linecap="round" class="BottomLeft"></path><path d="M62 20L285 -203" stroke-width="6" stroke="url(#SvgjsLinearGradient1031)" stroke-linecap="round" class="TopRight"></path><path d="M1134 430L1318 246" stroke-width="6" stroke="url(#SvgjsLinearGradient1030)" stroke-linecap="round" class="BottomLeft"></path><path d="M508 193L826 -125" stroke-width="6" stroke="url(#SvgjsLinearGradient1030)" stroke-linecap="round" class="BottomLeft"></path><path d="M944 160L1300 -196" stroke-width="10" stroke="url(#SvgjsLinearGradient1030)" stroke-linecap="round" class="BottomLeft"></path><path d="M565 48L317 296" stroke-width="8" stroke="url(#SvgjsLinearGradient1031)" stroke-linecap="round" class="TopRight"></path><path d="M387 293L-5 685" stroke-width="6" stroke="url(#SvgjsLinearGradient1030)" stroke-linecap="round" class="BottomLeft"></path><path d="M396 26L198 224" stroke-width="10" stroke="url(#SvgjsLinearGradient1030)" stroke-linecap="round" class="BottomLeft"></path><path d="M1166 30L1525 -329" stroke-width="8" stroke="url(#SvgjsLinearGradient1030)" stroke-linecap="round" class="BottomLeft"></path><path d="M1084 380L1471 -7" stroke-width="8" stroke="url(#SvgjsLinearGradient1031)" stroke-linecap="round" class="TopRight"></path><path d="M963 498L642 819" stroke-width="6" stroke="url(#SvgjsLinearGradient1030)" stroke-linecap="round" class="BottomLeft"></path><path d="M786 32L989 -171" stroke-width="6" stroke="url(#SvgjsLinearGradient1031)" stroke-linecap="round" class="TopRight"></path><path d="M1400 179L1033 546" stroke-width="10" stroke="url(#SvgjsLinearGradient1030)" stroke-linecap="round" class="BottomLeft"></path><path d="M503 260L235 528" stroke-width="8" stroke="url(#SvgjsLinearGradient1031)" stroke-linecap="round" class="TopRight"></path><path d="M1167 404L981 590" stroke-width="8" stroke="url(#SvgjsLinearGradient1031)" stroke-linecap="round" class="TopRight"></path><path d="M647 90L805 -68" stroke-width="6" stroke="url(#SvgjsLinearGradient1031)" stroke-linecap="round" class="TopRight"></path><path d="M1188 200L831 557" stroke-width="6" stroke="url(#SvgjsLinearGradient1030)" stroke-linecap="round" class="BottomLeft"></path><path d="M282 42L607 -283" stroke-width="8" stroke="url(#SvgjsLinearGradient1031)" stroke-linecap="round" class="TopRight"></path><path d="M812 81L454 439" stroke-width="8" stroke="url(#SvgjsLinearGradient1030)" stroke-linecap="round" class="BottomLeft"></path><path d="M451 459L297 613" stroke-width="8" stroke="url(#SvgjsLinearGradient1030)" stroke-linecap="round" class="BottomLeft"></path><path d="M1081 225L1351 -45" stroke-width="8" stroke="url(#SvgjsLinearGradient1030)" stroke-linecap="round" class="BottomLeft"></path><path d="M113 289L495 -93" stroke-width="8" stroke="url(#SvgjsLinearGradient1030)" stroke-linecap="round" class="BottomLeft"></path><path d="M683 300L862 121" stroke-width="8" stroke="url(#SvgjsLinearGradient1030)" stroke-linecap="round" class="BottomLeft"></path><path d="M265 230L33 462" stroke-width="10" stroke="url(#SvgjsLinearGradient1031)" stroke-linecap="round" class="TopRight"></path><path d="M789 534L972 351" stroke-width="8" stroke="url(#SvgjsLinearGradient1030)" stroke-linecap="round" class="BottomLeft"></path><path d="M194 461L436 219" stroke-width="10" stroke="url(#SvgjsLinearGradient1030)" stroke-linecap="round" class="BottomLeft"></path><path d="M1256 447L1449 254" stroke-width="6" stroke="url(#SvgjsLinearGradient1031)" stroke-linecap="round" class="TopRight"></path><path d="M1306 131L940 497" stroke-width="6" stroke="url(#SvgjsLinearGradient1031)" stroke-linecap="round" class="TopRight"></path><path d="M1313 249L1466 96" stroke-width="6" stroke="url(#SvgjsLinearGradient1030)" stroke-linecap="round" class="BottomLeft"></path><path d="M1170 68L941 297" stroke-width="6" stroke="url(#SvgjsLinearGradient1030)" stroke-linecap="round" class="BottomLeft"></path><path d="M420 27L827 -380" stroke-width="8" stroke="url(#SvgjsLinearGradient1030)" stroke-linecap="round" class="BottomLeft"></path><path d="M562 78L966 -326" stroke-width="6" stroke="url(#SvgjsLinearGradient1031)" stroke-linecap="round" class="TopRight"></path><path d="M1247 234L951 530" stroke-width="8" stroke="url(#SvgjsLinearGradient1030)" stroke-linecap="round" class="BottomLeft"></path></g><defs><mask id="SvgjsMask1029"><rect width="1440" height="560" fill="#ffffff"></rect></mask><linearGradient x1="100%" y1="0%" x2="0%" y2="100%" id="SvgjsLinearGradient1030"><stop stop-color="rgba(39, 39, 39, 0)" offset="0"></stop><stop stop-color="rgba(39, 39, 39, 1)" offset="1"></stop></linearGradient><linearGradient x1="0%" y1="100%" x2="100%" y2="0%" id="SvgjsLinearGradient1031"><stop stop-color="rgba(39, 39, 39, 0)" offset="0"></stop><stop stop-color="rgba(39, 39, 39, 1)" offset="1"></stop></linearGradient></defs></svg>